<?xml version="1.0" encoding="UTF-8"?>
<svg xmlns="http://www.w3.org/2000/svg" xmlns:xlink="http://www.w3.org/1999/xlink" width="46.227pt" height="8.817pt" viewBox="0 0 46.227 8.817" version="1.1">
<defs>
<g>
<symbol overflow="visible" id="glyph0-0">
<path style="stroke:none;" d="M 1.25 -0.625 L 1.25 -7.921875 L 3.734375 -7.921875 L 3.734375 -0.625 Z M 0.625 0 L 4.359375 0 L 4.359375 -8.546875 L 0.625 -8.546875 Z M 0.625 0 "/>
</symbol>
<symbol overflow="visible" id="glyph0-1">
<path style="stroke:none;" d="M 9.265625 -4.9375 C 9.265625 -5.109375 9.078125 -5.1875 8.9375 -5.203125 L 6.15625 -5.609375 L 4.90625 -8.140625 C 4.859375 -8.25 4.75 -8.359375 4.625 -8.359375 C 4.5 -8.359375 4.40625 -8.25 4.359375 -8.140625 L 3.09375 -5.609375 L 0.3125 -5.203125 C 0.171875 -5.1875 0 -5.109375 0 -4.9375 C 0 -4.84375 0.0625 -4.75 0.140625 -4.671875 L 2.15625 -2.71875 L 1.6875 0.0625 C 1.671875 0.109375 1.671875 0.140625 1.671875 0.171875 C 1.671875 0.328125 1.75 0.453125 1.90625 0.453125 C 1.984375 0.453125 2.0625 0.4375 2.140625 0.40625 L 4.625 -0.921875 L 7.125 0.40625 C 7.203125 0.4375 7.265625 0.453125 7.34375 0.453125 C 7.5 0.453125 7.578125 0.328125 7.578125 0.171875 C 7.578125 0.140625 7.578125 0.109375 7.5625 0.0625 L 7.09375 -2.71875 L 9.109375 -4.671875 C 9.1875 -4.75 9.265625 -4.84375 9.265625 -4.9375 Z M 9.265625 -4.9375 "/>
</symbol>
<symbol overflow="visible" id="glyph0-2">
<path style="stroke:none;" d="M 6.3125 -2.953125 L 6.734375 -0.625 L 4.625 -1.71875 L 2.515625 -0.625 L 2.9375 -2.953125 L 1.21875 -4.609375 L 3.578125 -4.953125 L 4.625 -7.078125 L 5.6875 -4.953125 L 8.03125 -4.609375 Z M 9.265625 -4.9375 C 9.265625 -5.109375 9.078125 -5.1875 8.9375 -5.203125 L 6.15625 -5.609375 L 4.90625 -8.140625 C 4.859375 -8.25 4.75 -8.359375 4.625 -8.359375 C 4.5 -8.359375 4.40625 -8.25 4.359375 -8.140625 L 3.09375 -5.609375 L 0.3125 -5.203125 C 0.171875 -5.1875 0 -5.109375 0 -4.9375 C 0 -4.84375 0.0625 -4.75 0.140625 -4.671875 L 2.15625 -2.71875 L 1.6875 0.0625 C 1.671875 0.109375 1.671875 0.140625 1.671875 0.171875 C 1.671875 0.328125 1.75 0.453125 1.90625 0.453125 C 1.984375 0.453125 2.0625 0.4375 2.140625 0.40625 L 4.625 -0.921875 L 7.125 0.40625 C 7.203125 0.4375 7.265625 0.453125 7.34375 0.453125 C 7.5 0.453125 7.578125 0.328125 7.578125 0.171875 C 7.578125 0.140625 7.578125 0.109375 7.5625 0.0625 L 7.09375 -2.71875 L 9.109375 -4.671875 C 9.1875 -4.75 9.265625 -4.84375 9.265625 -4.9375 Z M 9.265625 -4.9375 "/>
</symbol>
</g>
<clipPath id="clip1">
  <path d="M 0 0 L 46.226562 0 L 46.226562 8.816406 L 0 8.816406 Z M 0 0 "/>
</clipPath>
</defs>
<g id="surface1">
<g clip-path="url(#clip1)" clip-rule="nonzero">
<g style="fill:rgb(100%,84.399414%,0%);fill-opacity:1;">
  <use xlink:href="#glyph0-1" x="0" y="8.359"/>
  <use xlink:href="#glyph0-1" x="9.245293" y="8.359"/>
  <use xlink:href="#glyph0-2" x="18.490586" y="8.359"/>
  <use xlink:href="#glyph0-2" x="27.735878" y="8.359"/>
  <use xlink:href="#glyph0-2" x="36.981171" y="8.359"/>
</g>
</g>
</g>
</svg>
